<svg xmlns="http://www.w3.org/2000/svg" xmlns:svg="http://www.w3.org/2000/svg" style="enable-background:new" id="svg8" width="14" height="14" version="1.1"><metadata id="metadata14"/><path id="path4" d="m 3.9771189,3.9771475 c -0.4186691,0.4186294 -0.4186691,1.09269 0,1.5114263 L 5.4885592,7 3.9771189,8.5114263 c -0.4186691,0.4187362 -0.4186691,1.0927968 0,1.5114267 0.418669,0.418735 1.0927713,0.418735 1.5114403,0 L 7.0000004,8.5114263 8.5114416,10.022853 c 0.4186688,0.418736 1.0927713,0.418736 1.5114394,0 0.41867,-0.4186298 0.41867,-1.0926905 0,-1.5114267 L 8.5114416,7 10.022881,5.4885738 c 0.41867,-0.4187363 0.41867,-1.0927969 0,-1.5114263 -0.4186681,-0.4187362 -1.0927706,-0.4187362 -1.5114394,0 L 7.0000004,5.4885738 5.4885592,3.9771475 c -0.418669,-0.4187362 -1.0927713,-0.4187362 -1.5114403,0 z" style="opacity:1;fill:#151515;fill-opacity:1;stroke:none;stroke-width:2.13750005;stroke-linecap:round;stroke-linejoin:round;stroke-miterlimit:4;stroke-dasharray:none;stroke-opacity:1;enable-background:new"/></svg>